<?xml version="1.0" encoding="UTF-8"?>
<svg version="1.1" xmlns="http://www.w3.org/2000/svg" width="2048" height="2048">
<path d="M0 0 C10.21529397 7.8019721 18.54987369 17.58143911 20.625 30.6875 C20.625 33.9875 20.625 37.2875 20.625 40.6875 C495.825 40.6875 971.025 40.6875 1460.625 40.6875 C1460.625 37.7175 1460.625 34.7475 1460.625 31.6875 C1462.29018921 22.76167215 1465.84815703 15.62952361 1471.625 8.6875 C1472.15996094 8.04039063 1472.69492188 7.39328125 1473.24609375 6.7265625 C1480.98815696 -1.77671076 1492.40018263 -6.91979002 1503.796875 -7.62890625 C1520.0507968 -8.24144328 1532.32821246 -4.15248454 1544.375 7 C1551.95100143 15.0048317 1556.71667142 24.79778796 1556.65283203 35.86328125 C1556.64680466 37.21740112 1556.64680466 37.21740112 1556.64065552 38.59887695 C1556.6354892 39.28812256 1556.63032288 39.97736816 1556.625 40.6875 C1557.39935394 40.68083817 1558.17370789 40.67417633 1558.9715271 40.66731262 C1566.35340546 40.60661272 1573.73515886 40.56123169 1581.11722374 40.53206348 C1584.91029077 40.5165626 1588.70314763 40.49561878 1592.49609375 40.46118164 C1624.83698242 40.17557912 1624.83698242 40.17557912 1639.625 43.6875 C1641.12619385 44.02430786 1641.12619385 44.02430786 1642.65771484 44.36791992 C1645.17233768 44.97063401 1647.64519198 45.64323659 1650.125 46.375 C1651.43162598 46.75736816 1651.43162598 46.75736816 1652.76464844 47.14746094 C1692.594717 59.25707495 1726.5806916 87.57509893 1746.29907227 124.16992188 C1751.42500021 133.95780661 1755.52868272 143.89225529 1758.8125 154.4375 C1759.0506543 155.18628418 1759.28880859 155.93506836 1759.53417969 156.70654297 C1764.81523677 174.45696834 1765.05451217 192.02512479 1765.00252342 210.40209961 C1765.00398918 213.20771803 1765.00997982 216.01332294 1765.01573652 218.81893539 C1765.02586455 224.91640752 1765.02495855 231.01379903 1765.01668589 237.11127281 C1765.00435757 246.23940472 1765.00945597 255.36747181 1765.01783381 264.49560527 C1765.03160853 280.05612046 1765.03119614 295.6166062 1765.02299118 311.17712402 C1765.01473001 326.94039507 1765.01300234 342.70364673 1765.01920319 358.46691895 C1765.0195907 359.46348997 1765.01997822 360.460061 1765.02037748 361.48683114 C1765.02197734 365.54587965 1765.02362347 369.60492813 1765.02532831 373.66397659 C1765.04118745 411.44965346 1765.04227634 449.23531734 1765.03388596 487.02099609 C1765.03363757 488.14012934 1765.03338918 489.25926259 1765.03313327 490.41230896 C1765.03288448 491.53323629 1765.03263569 492.65416361 1765.03237936 493.80905843 C1765.02480941 527.96076057 1765.02285583 562.11245735 1765.0264473 596.26416016 C1765.02667973 598.55124478 1765.0269112 600.83832939 1765.02714171 603.12541401 C1765.02807311 612.31629382 1765.02902911 621.50717362 1765.030021 630.69805342 C1765.032772 656.39025496 1765.03448382 682.08245653 1765.03537941 707.7746582 C1765.03542035 708.94461336 1765.03546128 710.11456851 1765.03550346 711.31997685 C1765.03673127 748.59897953 1765.03335077 785.87798033 1765.02683067 823.15698242 C1765.02661993 824.36606636 1765.02640918 825.57515031 1765.02619205 826.82087316 C1765.02275721 846.45552664 1765.01909882 866.09018008 1765.01542152 885.72483352 C1765.00085255 963.59781086 1765.00152877 1041.47077273 1765.01611328 1119.34375 C1765.01977686 1138.96850584 1765.02341002 1158.59326169 1765.02683067 1178.21801758 C1765.02714769 1180.03057709 1765.02714769 1180.03057709 1765.02747111 1181.87975396 C1765.0339398 1219.11995015 1765.03668246 1256.36014506 1765.03537941 1293.6003418 C1765.03533866 1294.76943747 1765.0352979 1295.93853314 1765.03525592 1297.14305596 C1765.03431847 1322.80672898 1765.03241755 1348.47040186 1765.0296479 1374.13407474 C1765.02866048 1383.31673051 1765.02772124 1392.49938628 1765.02679577 1401.68204205 C1765.0265636 1403.96644081 1765.02632741 1406.25083958 1765.02608718 1408.53523834 C1765.02250658 1442.67772484 1765.02555538 1476.82020529 1765.03313327 1510.96269104 C1765.03338166 1512.08182429 1765.03363004 1513.20095753 1765.03388596 1514.35400391 C1765.03425803 1516.02960606 1765.03425803 1516.02960606 1765.03463761 1517.73905876 C1765.04291233 1555.41587551 1765.03986834 1593.09267668 1765.02404372 1630.7694912 C1765.02238667 1634.8156878 1765.02077655 1638.86188442 1765.01920319 1642.90808105 C1765.01881257 1643.90108422 1765.01842195 1644.89408739 1765.01801949 1645.91718157 C1765.01210339 1661.63768477 1765.01622089 1677.3581686 1765.0245102 1693.07867006 C1765.03244803 1708.53817459 1765.02965674 1723.99764644 1765.01546794 1739.45714682 C1765.00746817 1748.51883359 1765.00761842 1757.58043075 1765.01991273 1766.64211322 C1765.0272613 1772.66554767 1765.02367134 1778.68891255 1765.01131217 1784.71233862 C1765.00461459 1788.12346635 1765.00411155 1791.53427127 1765.01376172 1794.94541311 C1765.06060905 1812.77144853 1764.28600928 1829.69532032 1758.875 1846.8125 C1758.61823486 1847.64104492 1758.36146973 1848.46958984 1758.09692383 1849.32324219 C1749.06605635 1877.62448703 1732.01631582 1905.0499032 1708.625 1923.6875 C1708.09197266 1924.11643555 1707.55894531 1924.54537109 1707.00976562 1924.98730469 C1690.07766985 1938.50552385 1671.59117025 1948.42392943 1650.875 1954.875 C1650.12621582 1955.1131543 1649.37743164 1955.35130859 1648.60595703 1955.59667969 C1630.92557595 1960.85689739 1613.39747393 1961.12676931 1595.0874077 1961.07229719 C1591.34307862 1961.06454781 1587.59878547 1961.07443193 1583.85446155 1961.0819377 C1577.28085921 1961.0927288 1570.70733045 1961.09247071 1564.13372472 1961.08486467 C1554.29274318 1961.07353274 1544.4518234 1961.07958876 1534.61084248 1961.08892866 C1517.83560661 1961.10434055 1501.0603967 1961.10554266 1484.28515625 1961.09894943 C1467.28988782 1961.09231786 1450.29463795 1961.09220151 1433.29936981 1961.09999657 C1432.22512828 1961.10048457 1431.15088675 1961.10097256 1430.04409244 1961.10147535 C1425.66872188 1961.10348357 1421.29335133 1961.10553668 1416.91798081 1961.10764709 C1372.5192486 1961.12903966 1328.12053011 1961.13110301 1283.72179404 1961.12559005 C1277.58835755 1961.12483433 1271.45492106 1961.12410671 1265.32148457 1961.12340808 C1264.10321641 1961.12326899 1262.88494826 1961.1231299 1261.6297629 1961.12298659 C1234.62540401 1961.1200337 1207.62104677 1961.12304768 1180.61668818 1961.12730437 C1176.92031472 1961.12788652 1173.22394125 1961.12845537 1169.52756778 1961.12902 C1159.61872367 1961.13053497 1149.70987957 1961.13206188 1139.80103547 1961.13361301 C1070.63248445 1961.14436911 1001.46393497 1961.1490722 932.29538345 1961.14114285 C930.99167622 1961.14099454 929.68796898 1961.14084623 928.34475546 1961.14069343 C913.80716049 1961.13903445 899.26956553 1961.13728486 884.73197058 1961.13550042 C883.41944921 1961.1353394 882.10692784 1961.13517837 880.7546331 1961.13501247 C870.1030586 1961.13370476 870.1030586 1961.13370476 864.83081822 1961.13305128 C780.8732042 1961.12265947 696.91561921 1961.13042714 612.95800781 1961.15405273 C591.8021355 1961.15999617 570.64626319 1961.16588774 549.49039078 1961.17146206 C547.5364012 1961.17197771 547.5364012 1961.17197771 545.54293709 1961.17250379 C505.39371529 1961.18303157 465.24449525 1961.18862517 425.09527206 1961.1890192 C423.2044905 1961.18903838 423.2044905 1961.18903838 421.27551133 1961.18905794 C393.60410969 1961.18928623 365.93270819 1961.18828011 338.26130663 1961.18614888 C328.36006169 1961.18539412 318.45881674 1961.18471592 308.55757178 1961.18406873 C306.09441276 1961.18390604 303.63125374 1961.18373838 301.16809472 1961.18356572 C261.92459149 1961.18084484 222.68110098 1961.18939748 183.43760048 1961.20341982 C142.81415232 1961.21782881 102.19072837 1961.2173757 61.56728104 1961.2000451 C57.20359886 1961.19824093 52.83991666 1961.19650074 48.47623444 1961.19481087 C47.40532036 1961.19439037 46.33440628 1961.19396987 45.23104025 1961.19353662 C28.28433996 1961.18724255 11.33767295 1961.19433723 -5.60902265 1961.20702007 C-22.27877458 1961.21921228 -38.94847406 1961.21708482 -55.61822202 1961.19979975 C-65.38648557 1961.19009474 -75.15459996 1961.19123686 -84.92285368 1961.20862973 C-91.4192798 1961.21909637 -97.91559279 1961.21492542 -104.41200776 1961.19911324 C-108.08886701 1961.19056513 -111.76543214 1961.18796271 -115.44227524 1961.20349697 C-136.11618673 1961.28494311 -155.90040084 1959.9300205 -175.5625 1953.0625 C-177.04520386 1952.55481079 -177.04520386 1952.55481079 -178.55786133 1952.03686523 C-219.65072916 1937.4205601 -251.15185631 1905.79175018 -270.11328125 1867.14453125 C-273.09537728 1860.5715909 -275.41908092 1853.82061096 -277.5625 1846.9375 C-277.8006543 1846.18871582 -278.03880859 1845.43993164 -278.28417969 1844.66845703 C-283.56523677 1826.91803166 -283.80451217 1809.34987521 -283.75252342 1790.97290039 C-283.75398918 1788.16728197 -283.75997982 1785.36167706 -283.76573652 1782.55606461 C-283.77586455 1776.45859248 -283.77495855 1770.36120097 -283.76668589 1764.26372719 C-283.75435757 1755.13559528 -283.75945597 1746.00752819 -283.76783381 1736.87939473 C-283.78160853 1721.31887954 -283.78119614 1705.7583938 -283.77299118 1690.19787598 C-283.76473001 1674.43460493 -283.76300234 1658.67135327 -283.76920319 1642.90808105 C-283.7695907 1641.91151003 -283.76997822 1640.914939 -283.77037748 1639.88816886 C-283.77197734 1635.82912035 -283.77362347 1631.77007187 -283.77532831 1627.71102341 C-283.79118745 1589.92534654 -283.79227634 1552.13968266 -283.78388596 1514.35400391 C-283.78363757 1513.23487066 -283.78338918 1512.11573741 -283.78313327 1510.96269104 C-283.78288448 1509.84176371 -283.78263569 1508.72083639 -283.78237936 1507.56594157 C-283.77480941 1473.41423943 -283.77285583 1439.26254265 -283.7764473 1405.11083984 C-283.77667973 1402.82375522 -283.7769112 1400.53667061 -283.77714171 1398.24958599 C-283.77807311 1389.05870618 -283.77902911 1379.86782638 -283.780021 1370.67694658 C-283.782772 1344.98474504 -283.78448382 1319.29254347 -283.78537941 1293.6003418 C-283.78542035 1292.43038664 -283.78546128 1291.26043149 -283.78550346 1290.05502315 C-283.78673127 1252.77602047 -283.78335077 1215.49701967 -283.77683067 1178.21801758 C-283.77661993 1177.00893364 -283.77640918 1175.79984969 -283.77619205 1174.55412684 C-283.77275721 1154.91947336 -283.76909882 1135.28481992 -283.76542152 1115.65016648 C-283.75085255 1037.77718914 -283.75152877 959.90422727 -283.76611328 882.03125 C-283.76977686 862.40649416 -283.77341002 842.78173831 -283.77683067 823.15698242 C-283.77704202 821.94860942 -283.77725336 820.74023641 -283.77747111 819.49524604 C-283.7839398 782.25504985 -283.78668246 745.01485494 -283.78537941 707.7746582 C-283.78533866 706.60556253 -283.7852979 705.43646686 -283.78525592 704.23194404 C-283.78431847 678.56827102 -283.78241755 652.90459814 -283.7796479 627.24092526 C-283.77866048 618.05826949 -283.77772124 608.87561372 -283.77679577 599.69295795 C-283.7765636 597.40855919 -283.77632741 595.12416042 -283.77608718 592.83976166 C-283.77250658 558.69727516 -283.77555538 524.55479471 -283.78313327 490.41230896 C-283.78338166 489.29317571 -283.78363004 488.17404247 -283.78388596 487.02099609 C-283.784134 485.90392799 -283.78438205 484.78685989 -283.78463761 483.63594124 C-283.79291233 445.95912449 -283.78986834 408.28232332 -283.77404372 370.6055088 C-283.77238667 366.5593122 -283.77077655 362.51311558 -283.76920319 358.46691895 C-283.76881257 357.47391578 -283.76842195 356.48091261 -283.76801949 355.45781843 C-283.76210339 339.73731523 -283.76622089 324.0168314 -283.7745102 308.29632994 C-283.78244803 292.83682541 -283.77965674 277.37735356 -283.76546794 261.91785318 C-283.75746817 252.85616641 -283.75761842 243.79456925 -283.76991273 234.73288678 C-283.7772613 228.70945233 -283.77367134 222.68608745 -283.76131217 216.66266138 C-283.75461459 213.25153365 -283.75411155 209.84072873 -283.76376172 206.42958689 C-283.81060905 188.60355147 -283.03600928 171.67967968 -277.625 154.5625 C-277.23985229 153.31968262 -277.23985229 153.31968262 -276.84692383 152.05175781 C-267.93612106 124.1267759 -251.31698402 97.22210459 -228.375 78.6875 C-227.40691406 77.90503906 -226.43882812 77.12257813 -225.44140625 76.31640625 C-196.49234057 53.30753846 -162.40918557 40.44856451 -125.375 40.58984375 C-123.92911834 40.5917119 -122.48323604 40.59313393 -121.03735352 40.59413147 C-117.25626843 40.59792537 -113.47522256 40.60772849 -109.69415283 40.61883545 C-105.8260552 40.62911726 -101.95795115 40.63364351 -98.08984375 40.63867188 C-90.51821141 40.64935396 -82.94661123 40.66639223 -75.375 40.6875 C-75.38594444 39.77163368 -75.38594444 39.77163368 -75.39710999 38.83726501 C-75.40278488 38.03237137 -75.40845978 37.22747772 -75.41430664 36.39819336 C-75.42525108 35.20388954 -75.42525108 35.20388954 -75.43641663 33.98545837 C-75.17878414 24.34590681 -70.3842545 15.9088122 -64.375 8.6875 C-63.84003906 8.04039063 -63.30507812 7.39328125 -62.75390625 6.7265625 C-47.23959686 -10.31313462 -18.80269918 -12.53513279 0 0 Z M-97.7265625 200.03125 C-116.56560588 219.97085606 -123.48727327 244.66472462 -122.75390625 271.4296875 C-121.47959878 297.97842556 -108.02218795 320.06923154 -89 337.9375 C-70.24297097 354.04844815 -45.41432203 361.80575184 -20.84765625 360.53515625 C6.20368526 358.31154649 28.49893954 345.51987171 46.625 325.6875 C64.66816044 304.02854749 69.80371196 276.8321516 67.42285156 249.35449219 C64.309771 225.82430216 49.32739281 202.93759368 30.87109375 188.5390625 C26.03392119 185.06792133 26.03392119 185.06792133 20.625 182.6875 C20.62135437 183.81343567 20.61770874 184.93937134 20.61395264 186.09942627 C20.57688759 196.75034735 20.51898977 207.40098238 20.44109726 218.05168533 C20.40171782 223.52633043 20.36948268 229.00081696 20.35400391 234.47558594 C20.33877444 239.76667719 20.30421779 245.05733225 20.25669098 250.34822845 C20.24194183 252.35901837 20.23396273 254.36987059 20.23311615 256.38071442 C20.21900067 273.10861191 18.49857068 286.2450061 6.5234375 298.91015625 C-4.85429555 309.66472724 -17.22298825 312.30872987 -32.41015625 311.99609375 C-45.13338382 311.41809227 -55.05969747 305.50273128 -63.6875 296.375 C-71.65067186 286.91571706 -74.66186899 276.59668235 -74.69384766 264.42578125 C-74.70389328 263.53703812 -74.7139389 262.64829498 -74.72428894 261.73262024 C-74.75495414 258.82175286 -74.77210944 255.91097674 -74.7890625 253 C-74.80778757 250.97118351 -74.82736197 248.9423747 -74.8477478 246.91357422 C-74.89893352 241.59377584 -74.93863165 236.27395224 -74.97589111 230.95404053 C-75.01601599 225.5174747 -75.06706954 220.08101252 -75.1171875 214.64453125 C-75.21378614 203.99226046 -75.29824208 193.33993095 -75.375 182.6875 C-82.70727722 182.6875 -92.96485621 195.28536333 -97.7265625 200.03125 Z M1438.2734375 200.03125 C1419.43439412 219.97085606 1412.51272673 244.66472462 1413.24609375 271.4296875 C1414.52040122 297.97842556 1427.97781205 320.06923154 1447 337.9375 C1465.75702903 354.04844815 1490.58567797 361.80575184 1515.15234375 360.53515625 C1542.20368526 358.31154649 1564.49893954 345.51987171 1582.625 325.6875 C1600.66816044 304.02854749 1605.80371196 276.8321516 1603.42285156 249.35449219 C1600.309771 225.82430216 1585.32739281 202.93759368 1566.87109375 188.5390625 C1562.03392119 185.06792133 1562.03392119 185.06792133 1556.625 182.6875 C1556.62135437 183.81343567 1556.61770874 184.93937134 1556.61395264 186.09942627 C1556.57688759 196.75034735 1556.51898977 207.40098238 1556.44109726 218.05168533 C1556.40171782 223.52633043 1556.36948268 229.00081696 1556.35400391 234.47558594 C1556.33877444 239.76667719 1556.30421779 245.05733225 1556.25669098 250.34822845 C1556.24194183 252.35901837 1556.23396273 254.36987059 1556.23311615 256.38071442 C1556.21900067 273.10861191 1554.49857068 286.2450061 1542.5234375 298.91015625 C1531.14570445 309.66472724 1518.77701175 312.30872987 1503.58984375 311.99609375 C1490.86661618 311.41809227 1480.94030253 305.50273128 1472.3125 296.375 C1464.34932814 286.91571706 1461.33813101 276.59668235 1461.30615234 264.42578125 C1461.29610672 263.53703812 1461.2860611 262.64829498 1461.27571106 261.73262024 C1461.24504586 258.82175286 1461.22789056 255.91097674 1461.2109375 253 C1461.19221243 250.97118351 1461.17263803 248.9423747 1461.1522522 246.91357422 C1461.10106648 241.59377584 1461.06136835 236.27395224 1461.02410889 230.95404053 C1460.98398401 225.5174747 1460.93293046 220.08101252 1460.8828125 214.64453125 C1460.78621386 203.99226046 1460.70175792 193.33993095 1460.625 182.6875 C1453.29272278 182.6875 1443.03514379 195.28536333 1438.2734375 200.03125 Z " fill="#D8DCE1" transform="translate(283.375,47.3125)"/>
<path d="M0 0 C10.21529397 7.8019721 18.54987369 17.58143911 20.625 30.6875 C20.625 33.9875 20.625 37.2875 20.625 40.6875 C495.825 40.6875 971.025 40.6875 1460.625 40.6875 C1460.625 37.7175 1460.625 34.7475 1460.625 31.6875 C1462.29018921 22.76167215 1465.84815703 15.62952361 1471.625 8.6875 C1472.15996094 8.04039063 1472.69492188 7.39328125 1473.24609375 6.7265625 C1480.98815696 -1.77671076 1492.40018263 -6.91979002 1503.796875 -7.62890625 C1520.0507968 -8.24144328 1532.32821246 -4.15248454 1544.375 7 C1551.95100143 15.0048317 1556.71667142 24.79778796 1556.65283203 35.86328125 C1556.64680466 37.21740112 1556.64680466 37.21740112 1556.64065552 38.59887695 C1556.6354892 39.28812256 1556.63032288 39.97736816 1556.625 40.6875 C1557.39935394 40.68083817 1558.17370789 40.67417633 1558.9715271 40.66731262 C1566.35340546 40.60661272 1573.73515886 40.56123169 1581.11722374 40.53206348 C1584.91029077 40.5165626 1588.70314763 40.49561878 1592.49609375 40.46118164 C1624.83698242 40.17557912 1624.83698242 40.17557912 1639.625 43.6875 C1641.12619385 44.02430786 1641.12619385 44.02430786 1642.65771484 44.36791992 C1645.17233768 44.97063401 1647.64519198 45.64323659 1650.125 46.375 C1651.43162598 46.75736816 1651.43162598 46.75736816 1652.76464844 47.14746094 C1692.594717 59.25707495 1726.5806916 87.57509893 1746.29907227 124.16992188 C1751.42500021 133.95780661 1755.52868272 143.89225529 1758.8125 154.4375 C1759.0506543 155.18628418 1759.28880859 155.93506836 1759.53417969 156.70654297 C1791.0942211 262.78457837 1764.625 378.01417074 1764.625 488.6875 C1088.785 488.6875 412.945 488.6875 -283.375 488.6875 C-283.375 172.75204248 -283.375 172.75204248 -277.625 154.5625 C-277.23985229 153.31968262 -277.23985229 153.31968262 -276.84692383 152.05175781 C-267.93612106 124.1267759 -251.31698402 97.22210459 -228.375 78.6875 C-227.40691406 77.90503906 -226.43882812 77.12257813 -225.44140625 76.31640625 C-196.49234057 53.30753846 -162.40918557 40.44856451 -125.375 40.58984375 C-123.92911834 40.5917119 -122.48323604 40.59313393 -121.03735352 40.59413147 C-117.25626843 40.59792537 -113.47522256 40.60772849 -109.69415283 40.61883545 C-105.8260552 40.62911726 -101.95795115 40.63364351 -98.08984375 40.63867188 C-90.51821141 40.64935396 -82.94661123 40.66639223 -75.375 40.6875 C-75.38594444 39.77163368 -75.38594444 39.77163368 -75.39710999 38.83726501 C-75.40278488 38.03237137 -75.40845978 37.22747772 -75.41430664 36.39819336 C-75.42525108 35.20388954 -75.42525108 35.20388954 -75.43641663 33.98545837 C-75.17878414 24.34590681 -70.3842545 15.9088122 -64.375 8.6875 C-63.84003906 8.04039063 -63.30507812 7.39328125 -62.75390625 6.7265625 C-47.23959686 -10.31313462 -18.80269918 -12.53513279 0 0 Z M-97.7265625 200.03125 C-116.56560588 219.97085606 -123.48727327 244.66472462 -122.75390625 271.4296875 C-121.47959878 297.97842556 -108.02218795 320.06923154 -89 337.9375 C-70.24297097 354.04844815 -45.41432203 361.80575184 -20.84765625 360.53515625 C6.20368526 358.31154649 28.49893954 345.51987171 46.625 325.6875 C64.66816044 304.02854749 69.80371196 276.8321516 67.42285156 249.35449219 C64.309771 225.82430216 49.32739281 202.93759368 30.87109375 188.5390625 C26.03392119 185.06792133 26.03392119 185.06792133 20.625 182.6875 C20.62135437 183.81343567 20.61770874 184.93937134 20.61395264 186.09942627 C20.57688759 196.75034735 20.51898977 207.40098238 20.44109726 218.05168533 C20.40171782 223.52633043 20.36948268 229.00081696 20.35400391 234.47558594 C20.33877444 239.76667719 20.30421779 245.05733225 20.25669098 250.34822845 C20.24194183 252.35901837 20.23396273 254.36987059 20.23311615 256.38071442 C20.21900067 273.10861191 18.49857068 286.2450061 6.5234375 298.91015625 C-4.85429555 309.66472724 -17.22298825 312.30872987 -32.41015625 311.99609375 C-45.13338382 311.41809227 -55.05969747 305.50273128 -63.6875 296.375 C-71.65067186 286.91571706 -74.66186899 276.59668235 -74.69384766 264.42578125 C-74.70389328 263.53703812 -74.7139389 262.64829498 -74.72428894 261.73262024 C-74.75495414 258.82175286 -74.77210944 255.91097674 -74.7890625 253 C-74.80778757 250.97118351 -74.82736197 248.9423747 -74.8477478 246.91357422 C-74.89893352 241.59377584 -74.93863165 236.27395224 -74.97589111 230.95404053 C-75.01601599 225.5174747 -75.06706954 220.08101252 -75.1171875 214.64453125 C-75.21378614 203.99226046 -75.29824208 193.33993095 -75.375 182.6875 C-82.70727722 182.6875 -92.96485621 195.28536333 -97.7265625 200.03125 Z M1438.2734375 200.03125 C1419.43439412 219.97085606 1412.51272673 244.66472462 1413.24609375 271.4296875 C1414.52040122 297.97842556 1427.97781205 320.06923154 1447 337.9375 C1465.75702903 354.04844815 1490.58567797 361.80575184 1515.15234375 360.53515625 C1542.20368526 358.31154649 1564.49893954 345.51987171 1582.625 325.6875 C1600.66816044 304.02854749 1605.80371196 276.8321516 1603.42285156 249.35449219 C1600.309771 225.82430216 1585.32739281 202.93759368 1566.87109375 188.5390625 C1562.03392119 185.06792133 1562.03392119 185.06792133 1556.625 182.6875 C1556.62135437 183.81343567 1556.61770874 184.93937134 1556.61395264 186.09942627 C1556.57688759 196.75034735 1556.51898977 207.40098238 1556.44109726 218.05168533 C1556.40171782 223.52633043 1556.36948268 229.00081696 1556.35400391 234.47558594 C1556.33877444 239.76667719 1556.30421779 245.05733225 1556.25669098 250.34822845 C1556.24194183 252.35901837 1556.23396273 254.36987059 1556.23311615 256.38071442 C1556.21900067 273.10861191 1554.49857068 286.2450061 1542.5234375 298.91015625 C1531.14570445 309.66472724 1518.77701175 312.30872987 1503.58984375 311.99609375 C1490.86661618 311.41809227 1480.94030253 305.50273128 1472.3125 296.375 C1464.34932814 286.91571706 1461.33813101 276.59668235 1461.30615234 264.42578125 C1461.29610672 263.53703812 1461.2860611 262.64829498 1461.27571106 261.73262024 C1461.24504586 258.82175286 1461.22789056 255.91097674 1461.2109375 253 C1461.19221243 250.97118351 1461.17263803 248.9423747 1461.1522522 246.91357422 C1461.10106648 241.59377584 1461.06136835 236.27395224 1461.02410889 230.95404053 C1460.98398401 225.5174747 1460.93293046 220.08101252 1460.8828125 214.64453125 C1460.78621386 203.99226046 1460.70175792 193.33993095 1460.625 182.6875 C1453.29272278 182.6875 1443.03514379 195.28536333 1438.2734375 200.03125 Z " fill="#3584E4" transform="translate(283.375,47.3125)"/>
<path d="M0 0 C22.79679605 17.42061719 40.66736702 41.31066049 47.875 69.375 C48.06819824 70.1179834 48.26139648 70.8609668 48.46044922 71.62646484 C55.0075917 97.73486566 54.10091175 128.96150225 41.875 153.375 C41.30214514 154.5892594 40.7306594 155.80416516 40.16015625 157.01953125 C33.83817206 170.29425357 26.08389029 181.71315554 15.875 192.375 C15.14023438 193.18453125 14.40546875 193.9940625 13.6484375 194.828125 C-0.95020962 210.35444535 -21.59056407 221.94145539 -42.125 227.375 C-43.18799316 227.66697266 -43.18799316 227.66697266 -44.27246094 227.96484375 C-78.64314807 237.09059669 -113.65456809 230.09734164 -144.05273438 212.6328125 C-170.83486047 196.3767435 -192.30550756 167.68266778 -200.125 137.375 C-200.31964844 136.62863281 -200.51429687 135.88226562 -200.71484375 135.11328125 C-207.72775273 107.01580933 -205.72901567 76.61661805 -193.125 50.375 C-192.80547363 49.69920898 -192.48594727 49.02341797 -192.15673828 48.32714844 C-177.76465773 18.25761387 -152.18557282 -5.1369609 -121.10546875 -17.2578125 C-112.59841218 -20.23305532 -103.98714389 -22.09096807 -95.125 -23.625 C-94.18140625 -23.81191406 -93.2378125 -23.99882813 -92.265625 -24.19140625 C-59.83385562 -28.66892665 -26.13243396 -19.32671171 0 0 Z " fill="#FEFEFE" transform="translate(1740.125,1168.625)"/>
<path d="M0 0 C22.79679605 17.42061719 40.66736702 41.31066049 47.875 69.375 C48.06819824 70.1179834 48.26139648 70.8609668 48.46044922 71.62646484 C55.0075917 97.73486566 54.10091175 128.96150225 41.875 153.375 C41.30214514 154.5892594 40.7306594 155.80416516 40.16015625 157.01953125 C33.83817206 170.29425357 26.08389029 181.71315554 15.875 192.375 C15.14023438 193.18453125 14.40546875 193.9940625 13.6484375 194.828125 C-0.95020962 210.35444535 -21.59056407 221.94145539 -42.125 227.375 C-43.18799316 227.66697266 -43.18799316 227.66697266 -44.27246094 227.96484375 C-78.64314807 237.09059669 -113.65456809 230.09734164 -144.05273438 212.6328125 C-170.83486047 196.3767435 -192.30550756 167.68266778 -200.125 137.375 C-200.31964844 136.62863281 -200.51429688 135.88226562 -200.71484375 135.11328125 C-207.72775273 107.01580933 -205.72901567 76.61661805 -193.125 50.375 C-192.80547363 49.69920898 -192.48594727 49.02341797 -192.15673828 48.32714844 C-177.76465773 18.25761387 -152.18557282 -5.1369609 -121.10546875 -17.2578125 C-112.59841218 -20.23305532 -103.98714389 -22.09096807 -95.125 -23.625 C-94.18140625 -23.81191406 -93.2378125 -23.99882813 -92.265625 -24.19140625 C-59.83385562 -28.66892665 -26.13243396 -19.32671171 0 0 Z " fill="#FEFEFE" transform="translate(1100.125,1168.625)"/>
<path d="M0 0 C22.79679605 17.42061719 40.66736702 41.31066049 47.875 69.375 C48.06819824 70.1179834 48.26139648 70.8609668 48.46044922 71.62646484 C55.0075917 97.73486566 54.10091175 128.96150225 41.875 153.375 C41.30214514 154.5892594 40.7306594 155.80416516 40.16015625 157.01953125 C33.83817206 170.29425357 26.08389029 181.71315554 15.875 192.375 C15.14023437 193.18453125 14.40546875 193.9940625 13.6484375 194.828125 C-0.95020962 210.35444535 -21.59056407 221.94145539 -42.125 227.375 C-43.18799316 227.66697266 -43.18799316 227.66697266 -44.27246094 227.96484375 C-78.64314807 237.09059669 -113.65456809 230.09734164 -144.05273438 212.6328125 C-170.83486047 196.3767435 -192.30550756 167.68266778 -200.125 137.375 C-200.31964844 136.62863281 -200.51429688 135.88226562 -200.71484375 135.11328125 C-207.72775273 107.01580933 -205.72901567 76.61661805 -193.125 50.375 C-192.80547363 49.69920898 -192.48594727 49.02341797 -192.15673828 48.32714844 C-177.76465773 18.25761387 -152.18557282 -5.1369609 -121.10546875 -17.2578125 C-112.59841218 -20.23305532 -103.98714389 -22.09096807 -95.125 -23.625 C-94.18140625 -23.81191406 -93.2378125 -23.99882813 -92.265625 -24.19140625 C-59.83385562 -28.66892665 -26.13243396 -19.32671171 0 0 Z " fill="#FEFEFE" transform="translate(780.125,1168.625)"/>
<path d="M0 0 C22.79679605 17.42061719 40.66736702 41.31066049 47.875 69.375 C48.06819824 70.1179834 48.26139648 70.8609668 48.46044922 71.62646484 C55.0075917 97.73486566 54.10091175 128.96150225 41.875 153.375 C41.30214514 154.5892594 40.7306594 155.80416516 40.16015625 157.01953125 C33.83817206 170.29425357 26.08389029 181.71315554 15.875 192.375 C15.14023437 193.18453125 14.40546875 193.9940625 13.6484375 194.828125 C-0.95020962 210.35444535 -21.59056407 221.94145539 -42.125 227.375 C-43.18799316 227.66697266 -43.18799316 227.66697266 -44.27246094 227.96484375 C-78.64314807 237.09059669 -113.65456809 230.09734164 -144.05273438 212.6328125 C-170.83486047 196.3767435 -192.30550756 167.68266778 -200.125 137.375 C-200.31964844 136.62863281 -200.51429688 135.88226562 -200.71484375 135.11328125 C-207.72775273 107.01580933 -205.72901567 76.61661805 -193.125 50.375 C-192.80547363 49.69920898 -192.48594727 49.02341797 -192.15673828 48.32714844 C-177.76465773 18.25761387 -152.18557282 -5.1369609 -121.10546875 -17.2578125 C-112.59841218 -20.23305532 -103.98714389 -22.09096807 -95.125 -23.625 C-94.18140625 -23.81191406 -93.2378125 -23.99882813 -92.265625 -24.19140625 C-59.83385562 -28.66892665 -26.13243396 -19.32671171 0 0 Z " fill="#FEFEFE" transform="translate(460.125,1168.625)"/>
<path d="M0 0 C22.79679605 17.42061719 40.66736702 41.31066049 47.875 69.375 C48.06819824 70.1179834 48.26139648 70.8609668 48.46044922 71.62646484 C55.0075917 97.73486566 54.10091175 128.96150225 41.875 153.375 C41.30214514 154.5892594 40.7306594 155.80416516 40.16015625 157.01953125 C33.83817206 170.29425357 26.08389029 181.71315554 15.875 192.375 C15.14023438 193.18453125 14.40546875 193.9940625 13.6484375 194.828125 C-0.95020962 210.35444535 -21.59056407 221.94145539 -42.125 227.375 C-43.18799316 227.66697266 -43.18799316 227.66697266 -44.27246094 227.96484375 C-78.64314807 237.09059669 -113.65456809 230.09734164 -144.05273438 212.6328125 C-170.83486047 196.3767435 -192.30550756 167.68266778 -200.125 137.375 C-200.31964844 136.62863281 -200.51429687 135.88226562 -200.71484375 135.11328125 C-207.72775273 107.01580933 -205.72901567 76.61661805 -193.125 50.375 C-192.80547363 49.69920898 -192.48594727 49.02341797 -192.15673828 48.32714844 C-177.76465773 18.25761387 -152.18557282 -5.1369609 -121.10546875 -17.2578125 C-112.59841218 -20.23305532 -103.98714389 -22.09096807 -95.125 -23.625 C-94.18140625 -23.81191406 -93.2378125 -23.99882813 -92.265625 -24.19140625 C-59.83385562 -28.66892665 -26.13243396 -19.32671171 0 0 Z " fill="#FEFEFE" transform="translate(1420.125,848.625)"/>
<path d="M0 0 C22.79679605 17.42061719 40.66736702 41.31066049 47.875 69.375 C48.06819824 70.1179834 48.26139648 70.8609668 48.46044922 71.62646484 C55.0075917 97.73486566 54.10091175 128.96150225 41.875 153.375 C41.30214514 154.5892594 40.7306594 155.80416516 40.16015625 157.01953125 C33.83817206 170.29425357 26.08389029 181.71315554 15.875 192.375 C15.14023438 193.18453125 14.40546875 193.9940625 13.6484375 194.828125 C-0.95020962 210.35444535 -21.59056407 221.94145539 -42.125 227.375 C-43.18799316 227.66697266 -43.18799316 227.66697266 -44.27246094 227.96484375 C-78.64314807 237.09059669 -113.65456809 230.09734164 -144.05273438 212.6328125 C-170.83486047 196.3767435 -192.30550756 167.68266778 -200.125 137.375 C-200.31964844 136.62863281 -200.51429688 135.88226562 -200.71484375 135.11328125 C-207.72775273 107.01580933 -205.72901567 76.61661805 -193.125 50.375 C-192.80547363 49.69920898 -192.48594727 49.02341797 -192.15673828 48.32714844 C-177.76465773 18.25761387 -152.18557282 -5.1369609 -121.10546875 -17.2578125 C-112.59841218 -20.23305532 -103.98714389 -22.09096807 -95.125 -23.625 C-94.18140625 -23.81191406 -93.2378125 -23.99882813 -92.265625 -24.19140625 C-59.83385562 -28.66892665 -26.13243396 -19.32671171 0 0 Z " fill="#FEFEFE" transform="translate(1100.125,848.625)"/>
<path d="M0 0 C22.79679605 17.42061719 40.66736702 41.31066049 47.875 69.375 C48.06819824 70.1179834 48.26139648 70.8609668 48.46044922 71.62646484 C55.0075917 97.73486566 54.10091175 128.96150225 41.875 153.375 C41.30214514 154.5892594 40.7306594 155.80416516 40.16015625 157.01953125 C33.83817206 170.29425357 26.08389029 181.71315554 15.875 192.375 C15.14023437 193.18453125 14.40546875 193.9940625 13.6484375 194.828125 C-0.95020962 210.35444535 -21.59056407 221.94145539 -42.125 227.375 C-43.18799316 227.66697266 -43.18799316 227.66697266 -44.27246094 227.96484375 C-78.64314807 237.09059669 -113.65456809 230.09734164 -144.05273438 212.6328125 C-170.83486047 196.3767435 -192.30550756 167.68266778 -200.125 137.375 C-200.31964844 136.62863281 -200.51429688 135.88226562 -200.71484375 135.11328125 C-207.72775273 107.01580933 -205.72901567 76.61661805 -193.125 50.375 C-192.80547363 49.69920898 -192.48594727 49.02341797 -192.15673828 48.32714844 C-177.76465773 18.25761387 -152.18557282 -5.1369609 -121.10546875 -17.2578125 C-112.59841218 -20.23305532 -103.98714389 -22.09096807 -95.125 -23.625 C-94.18140625 -23.81191406 -93.2378125 -23.99882813 -92.265625 -24.19140625 C-59.83385562 -28.66892665 -26.13243396 -19.32671171 0 0 Z " fill="#FEFEFE" transform="translate(780.125,848.625)"/>
<path d="M0 0 C29.12761738 22.25843802 46.76533691 53.09123079 51.875 89.375 C52.49542737 96.39004574 52.31640139 103.35494138 51.875 110.375 C51.82424316 111.20402832 51.77348633 112.03305664 51.72119141 112.88720703 C50.75354461 127.03592221 48.27564235 140.59378001 41.875 153.375 C41.30214514 154.5892594 40.7306594 155.80416516 40.16015625 157.01953125 C33.83817206 170.29425357 26.08389029 181.71315554 15.875 192.375 C15.14023438 193.18453125 14.40546875 193.9940625 13.6484375 194.828125 C-0.95020962 210.35444535 -21.59056407 221.94145539 -42.125 227.375 C-43.18799316 227.66697266 -43.18799316 227.66697266 -44.27246094 227.96484375 C-78.64314807 237.09059669 -113.65456809 230.09734164 -144.05273438 212.6328125 C-170.83486047 196.3767435 -192.30550756 167.68266778 -200.125 137.375 C-200.31964844 136.62863281 -200.51429687 135.88226562 -200.71484375 135.11328125 C-207.72775273 107.01580933 -205.72901567 76.61661805 -193.125 50.375 C-192.80547363 49.69920898 -192.48594727 49.02341797 -192.15673828 48.32714844 C-177.76465773 18.25761387 -152.18557282 -5.1369609 -121.10546875 -17.2578125 C-112.59841218 -20.23305532 -103.98714389 -22.09096807 -95.125 -23.625 C-94.18140625 -23.81191406 -93.2378125 -23.99882813 -92.265625 -24.19140625 C-59.83385562 -28.66892665 -26.13243396 -19.32671171 0 0 Z " fill="#FEFEFE" transform="translate(1740.125,1488.625)"/>
<path d="M0 0 C29.12761738 22.25843802 46.76533691 53.09123079 51.875 89.375 C52.49542737 96.39004574 52.31640139 103.35494138 51.875 110.375 C51.82424316 111.20402832 51.77348633 112.03305664 51.72119141 112.88720703 C50.75354461 127.03592221 48.27564235 140.59378001 41.875 153.375 C41.30214514 154.5892594 40.7306594 155.80416516 40.16015625 157.01953125 C33.83817206 170.29425357 26.08389029 181.71315554 15.875 192.375 C15.14023438 193.18453125 14.40546875 193.9940625 13.6484375 194.828125 C-0.95020962 210.35444535 -21.59056407 221.94145539 -42.125 227.375 C-43.18799316 227.66697266 -43.18799316 227.66697266 -44.27246094 227.96484375 C-78.64314807 237.09059669 -113.65456809 230.09734164 -144.05273438 212.6328125 C-170.83486047 196.3767435 -192.30550756 167.68266778 -200.125 137.375 C-200.31964844 136.62863281 -200.51429687 135.88226562 -200.71484375 135.11328125 C-207.72775273 107.01580933 -205.72901567 76.61661805 -193.125 50.375 C-192.80547363 49.69920898 -192.48594727 49.02341797 -192.15673828 48.32714844 C-177.76465773 18.25761387 -152.18557282 -5.1369609 -121.10546875 -17.2578125 C-112.59841218 -20.23305532 -103.98714389 -22.09096807 -95.125 -23.625 C-94.18140625 -23.81191406 -93.2378125 -23.99882813 -92.265625 -24.19140625 C-59.83385562 -28.66892665 -26.13243396 -19.32671171 0 0 Z " fill="#FEFEFE" transform="translate(1420.125,1488.625)"/>
<path d="M0 0 C29.12761738 22.25843802 46.76533691 53.09123079 51.875 89.375 C52.49542737 96.39004574 52.31640139 103.35494138 51.875 110.375 C51.82424316 111.20402832 51.77348633 112.03305664 51.72119141 112.88720703 C50.75354461 127.03592221 48.27564235 140.59378001 41.875 153.375 C41.30214514 154.5892594 40.7306594 155.80416516 40.16015625 157.01953125 C33.83817206 170.29425357 26.08389029 181.71315554 15.875 192.375 C15.14023437 193.18453125 14.40546875 193.9940625 13.6484375 194.828125 C-0.95020962 210.35444535 -21.59056407 221.94145539 -42.125 227.375 C-43.18799316 227.66697266 -43.18799316 227.66697266 -44.27246094 227.96484375 C-78.64314807 237.09059669 -113.65456809 230.09734164 -144.05273438 212.6328125 C-170.83486047 196.3767435 -192.30550756 167.68266778 -200.125 137.375 C-200.31964844 136.62863281 -200.51429688 135.88226562 -200.71484375 135.11328125 C-207.72775273 107.01580933 -205.72901567 76.61661805 -193.125 50.375 C-192.80547363 49.69920898 -192.48594727 49.02341797 -192.15673828 48.32714844 C-177.76465773 18.25761387 -152.18557282 -5.1369609 -121.10546875 -17.2578125 C-112.59841218 -20.23305532 -103.98714389 -22.09096807 -95.125 -23.625 C-94.18140625 -23.81191406 -93.2378125 -23.99882813 -92.265625 -24.19140625 C-59.83385562 -28.66892665 -26.13243396 -19.32671171 0 0 Z " fill="#FEFEFE" transform="translate(780.125,1488.625)"/>
<path d="M0 0 C29.12761738 22.25843802 46.76533691 53.09123079 51.875 89.375 C52.49542737 96.39004574 52.31640139 103.35494138 51.875 110.375 C51.82424316 111.20402832 51.77348633 112.03305664 51.72119141 112.88720703 C50.75354461 127.03592221 48.27564235 140.59378001 41.875 153.375 C41.30214514 154.5892594 40.7306594 155.80416516 40.16015625 157.01953125 C33.83817206 170.29425357 26.08389029 181.71315554 15.875 192.375 C15.14023437 193.18453125 14.40546875 193.9940625 13.6484375 194.828125 C-0.95020962 210.35444535 -21.59056407 221.94145539 -42.125 227.375 C-43.18799316 227.66697266 -43.18799316 227.66697266 -44.27246094 227.96484375 C-78.64314807 237.09059669 -113.65456809 230.09734164 -144.05273438 212.6328125 C-170.83486047 196.3767435 -192.30550756 167.68266778 -200.125 137.375 C-200.31964844 136.62863281 -200.51429688 135.88226562 -200.71484375 135.11328125 C-207.72775273 107.01580933 -205.72901567 76.61661805 -193.125 50.375 C-192.80547363 49.69920898 -192.48594727 49.02341797 -192.15673828 48.32714844 C-177.76465773 18.25761387 -152.18557282 -5.1369609 -121.10546875 -17.2578125 C-112.59841218 -20.23305532 -103.98714389 -22.09096807 -95.125 -23.625 C-94.18140625 -23.81191406 -93.2378125 -23.99882813 -92.265625 -24.19140625 C-59.83385562 -28.66892665 -26.13243396 -19.32671171 0 0 Z " fill="#FEFEFE" transform="translate(460.125,1488.625)"/>
<path d="M0 0 C22.79679605 17.42061719 40.66736702 41.31066049 47.875 69.375 C48.06819824 70.1179834 48.26139648 70.8609668 48.46044922 71.62646484 C55.0075917 97.73486566 54.10091175 128.96150225 41.875 153.375 C41.30214514 154.5892594 40.7306594 155.80416516 40.16015625 157.01953125 C33.83817206 170.29425357 26.08389029 181.71315554 15.875 192.375 C15.14023438 193.18453125 14.40546875 193.9940625 13.6484375 194.828125 C-0.95020962 210.35444535 -21.59056407 221.94145539 -42.125 227.375 C-43.18799316 227.66697266 -43.18799316 227.66697266 -44.27246094 227.96484375 C-78.64314807 237.09059669 -113.65456809 230.09734164 -144.05273438 212.6328125 C-170.83486047 196.3767435 -192.30550756 167.68266778 -200.125 137.375 C-200.31964844 136.62863281 -200.51429687 135.88226562 -200.71484375 135.11328125 C-207.72775273 107.01580933 -205.72901567 76.61661805 -193.125 50.375 C-192.80547363 49.69920898 -192.48594727 49.02341797 -192.15673828 48.32714844 C-177.76465773 18.25761387 -152.18557282 -5.1369609 -121.10546875 -17.2578125 C-112.59841218 -20.23305532 -103.98714389 -22.09096807 -95.125 -23.625 C-94.18140625 -23.81191406 -93.2378125 -23.99882813 -92.265625 -24.19140625 C-59.83385562 -28.66892665 -26.13243396 -19.32671171 0 0 Z " fill="#FEFEFE" transform="translate(1740.125,848.625)"/>
<path d="M0 0 C1.8560083 0.00845947 1.8560083 0.00845947 3.74951172 0.01708984 C38.31787201 0.47497894 69.86068476 16.43831472 94.05639648 40.61767578 C108.0926117 55.153203 117.57446754 73.083521 123.3125 92.3125 C123.60898438 93.21742187 123.90546875 94.12234375 124.2109375 95.0546875 C127.64929696 105.71019752 128.68114128 116.34312403 128.625 127.5 C128.61936035 128.68327881 128.6137207 129.86655762 128.60791016 131.08569336 C128.12739026 165.95193125 112.47890539 197.59584176 88.00512695 222.05639648 C73.41783588 236.1296318 55.42059781 245.07213388 36.3125 251.3125 C35.32765625 251.6528125 34.3428125 251.993125 33.328125 252.34375 C13.82896025 258.60773039 -10.02147583 258.96836567 -29.6875 253.3125 C-30.48671875 253.08675293 -31.2859375 252.86100586 -32.109375 252.62841797 C-65.32419315 242.98841367 -93.57894239 222.60251843 -110.84716797 192.27587891 C-115.77698891 183.28848581 -119.5057283 174.05513428 -122.6875 164.3125 C-123.0278125 163.32765625 -123.368125 162.3428125 -123.71875 161.328125 C-129.98273039 141.82896025 -130.34336567 117.97852417 -124.6875 98.3125 C-124.46175293 97.51328125 -124.23600586 96.7140625 -124.00341797 95.890625 C-113.7553905 60.58085143 -91.91603413 33.16467421 -59.99121094 14.96337891 C-52.19469899 10.67754123 -44.21905399 7.8072178 -35.6875 5.3125 C-34.6975 5.01601562 -33.7075 4.71953125 -32.6875 4.4140625 C-21.77109609 1.28179888 -11.36061121 -0.05426797 0 0 Z " fill="#1A5FB4" transform="translate(1023.6875,1463.6875)"/>
<path d="M0 0 C1.13308594 0.02964844 2.26617187 0.05929687 3.43359375 0.08984375 C37.91047863 1.56076184 69.21004468 18.99820327 92.25146484 43.99707031 C104.43253604 57.95036662 112.69598448 74.38742936 118 92 C118.44472656 93.21816406 118.44472656 93.21816406 118.8984375 94.4609375 C129.14973943 123.3878786 122.77853784 157.52630311 110.11035156 184.43505859 C104.11368962 196.62153561 96.39991313 207.18302588 87 217 C86.26523437 217.80953125 85.53046875 218.6190625 84.7734375 219.453125 C63.4210535 242.16234945 31.31090394 254.7229784 0.59863281 255.86743164 C-28.84398366 256.68577761 -56.09071195 249.61004331 -80 232 C-80.81339844 231.40960937 -81.62679687 230.81921875 -82.46484375 230.2109375 C-109.22257252 209.82822677 -127.1639026 179.34878403 -132.5703125 146.109375 C-133.52846289 138.09219829 -133.36635419 130.0505949 -133 122 C-132.96277832 121.16919922 -132.92555664 120.33839844 -132.88720703 119.48242188 C-131.59623246 95.28965296 -123.37659051 72.5192049 -109 53 C-108.40960938 52.18660156 -107.81921875 51.37320313 -107.2109375 50.53515625 C-90.3514807 28.4026353 -67.60009321 12.8482257 -41 5 C-40.1028125 4.70351563 -39.205625 4.40703125 -38.28125 4.1015625 C-26.22004621 0.3417428 -12.57413564 -0.56086073 0 0 Z " fill="#62A0EA" transform="translate(389,824)"/>
<path d="M0 0 C1.71123047 0.04253906 1.71123047 0.04253906 3.45703125 0.0859375 C37.94098842 1.60250944 69.20414631 18.9902091 92.25585938 44.00585938 C97.1335391 49.5826914 101.16346971 55.67716722 105 62 C105.60666504 62.98492432 105.60666504 62.98492432 106.22558594 63.98974609 C116.96120619 81.7387825 122.11435598 101.36941469 123 122 C123.04640625 123.04285156 123.0928125 124.08570313 123.140625 125.16015625 C123.18703236 127.78603923 123.11854977 130.3766083 123 133 C122.97035156 134.13179687 122.94070313 135.26359375 122.91015625 136.4296875 C121.44063133 170.90976004 104.00231489 202.21117211 78.99853516 225.25146484 C54.30539891 246.85569667 21.43865731 257.42792176 -11 256 C-11.81484863 255.9680957 -12.62969727 255.93619141 -13.46923828 255.90332031 C-47.43717303 254.31330296 -77.36254384 238.31736332 -100.5234375 213.91796875 C-120.60944753 191.84985932 -131.70002488 162.55065384 -133 133 C-133.04253906 132.10796875 -133.08507813 131.2159375 -133.12890625 130.296875 C-133.19445717 127.51751602 -133.12361712 124.77795143 -133 122 C-132.97099609 121.32437012 -132.94199219 120.64874023 -132.91210938 119.95263672 C-131.1310908 84.88317349 -114.72043136 54.14133466 -88.96191406 30.69580078 C-83.37355529 25.86544488 -77.3146209 21.81223243 -71 18 C-70.32211426 17.59023926 -69.64422852 17.18047852 -68.94580078 16.75830078 C-47.78689456 4.23690695 -24.48529507 -0.71919425 0 0 Z " fill="#3584E4" transform="translate(1349,1144)"/>
<path d="M0 0 C10.72816001 8.1936756 17.52145784 17.41052929 20.625 30.6875 C21.01171116 34.15754003 21.03567098 37.58340299 21.01268005 41.07247925 C21.01806559 42.06894348 21.02345113 43.06540772 21.02899987 44.09206784 C21.04321826 47.4050943 21.03619076 50.71771775 21.02905273 54.03076172 C21.0347595 56.41668009 21.04172495 58.80259572 21.04985046 61.18850708 C21.06590568 66.98113672 21.06788928 72.77364165 21.06263756 78.56628881 C21.05858477 83.27801031 21.06005254 87.98969985 21.06538582 92.70141983 C21.06613424 93.3737884 21.06688266 94.04615697 21.06765376 94.73890034 C21.06918535 96.10512423 21.0707237 97.47134812 21.07226873 98.83757199 C21.08597514 111.63017862 21.08056929 124.42272398 21.06908352 137.21532919 C21.05915407 148.89812745 21.07209008 160.58076726 21.09601771 172.26354109 C21.12044739 184.28274396 21.13000704 196.30187316 21.12336498 208.32110035 C21.11988121 215.0596427 21.12204886 221.79806329 21.13961601 228.53658676 C21.15511504 234.87489219 21.15109636 241.21289579 21.13231087 247.55118942 C21.12863318 249.87146447 21.13170939 252.19176203 21.14219666 254.5120163 C21.22005902 273.16942967 19.49815645 286.22560142 6.3125 300.4375 C-4.24604681 310.43041038 -15.79327923 313.20189781 -29.90527344 313.10717773 C-44.02083915 312.6965959 -55.11685728 306.85532095 -64.78125 296.62109375 C-72.92424541 286.74172431 -75.84706493 275.91133574 -75.76268005 263.2649231 C-75.76806559 262.27647711 -75.77345113 261.28803112 -75.77899987 260.26963222 C-75.79319602 256.98968313 -75.78619634 253.71014239 -75.77905273 250.43017578 C-75.78476067 248.06543659 -75.79172656 245.70070015 -75.79985046 243.33596802 C-75.81775039 236.93508429 -75.81661935 230.53433789 -75.81090808 224.13343668 C-75.80783833 220.12962161 -75.8108131 216.12581835 -75.81538582 212.12200546 C-75.81613424 211.45561183 -75.81688266 210.7892182 -75.81765376 210.10263082 C-75.81918537 208.74848819 -75.82072372 207.39434557 -75.82226873 206.04020296 C-75.83597055 193.36487709 -75.83057251 180.68961308 -75.81908352 168.01428865 C-75.80915429 156.44215989 -75.82209051 144.8701911 -75.84601771 133.29808702 C-75.87045546 121.38845871 -75.88000508 109.47890475 -75.87336498 97.56925189 C-75.86988303 90.89385808 -75.87237564 84.21856905 -75.88961601 77.54318619 C-75.90512634 71.26395934 -75.90108392 64.98503699 -75.88231087 58.70582199 C-75.8786363 56.40854194 -75.88170018 54.11123912 -75.89219666 51.8139801 C-75.96182967 35.30695545 -75.39592787 21.93133265 -64.375 8.6875 C-63.84003906 8.04039063 -63.30507812 7.39328125 -62.75390625 6.7265625 C-47.23959686 -10.31313462 -18.80269918 -12.53513279 0 0 Z " fill="#5B5369" transform="translate(1819.375,47.3125)"/>
<path d="M0 0 C10.72816001 8.1936756 17.52145784 17.41052929 20.625 30.6875 C21.01171116 34.15754003 21.03567098 37.58340299 21.01268005 41.07247925 C21.01806559 42.06894348 21.02345113 43.06540772 21.02899987 44.09206784 C21.04321826 47.4050943 21.03619076 50.71771775 21.02905273 54.03076172 C21.0347595 56.41668009 21.04172495 58.80259572 21.04985046 61.18850708 C21.06590568 66.98113672 21.06788928 72.77364165 21.06263756 78.56628881 C21.05858477 83.27801031 21.06005254 87.98969985 21.06538582 92.70141983 C21.06613424 93.3737884 21.06688266 94.04615697 21.06765376 94.73890034 C21.06918535 96.10512423 21.0707237 97.47134812 21.07226873 98.83757199 C21.08597514 111.63017862 21.08056929 124.42272398 21.06908352 137.21532919 C21.05915407 148.89812745 21.07209008 160.58076726 21.09601771 172.26354109 C21.12044739 184.28274396 21.13000704 196.30187316 21.12336498 208.32110035 C21.11988121 215.0596427 21.12204886 221.79806329 21.13961601 228.53658676 C21.15511504 234.87489219 21.15109636 241.21289579 21.13231087 247.55118942 C21.12863318 249.87146447 21.13170939 252.19176203 21.14219666 254.5120163 C21.22005902 273.16942967 19.49815645 286.22560142 6.3125 300.4375 C-4.24604681 310.43041038 -15.79327923 313.20189781 -29.90527344 313.10717773 C-44.02083915 312.6965959 -55.11685728 306.85532095 -64.78125 296.62109375 C-72.92424541 286.74172431 -75.84706493 275.91133574 -75.76268005 263.2649231 C-75.76806559 262.27647711 -75.77345113 261.28803112 -75.77899987 260.26963222 C-75.79319602 256.98968313 -75.78619634 253.71014239 -75.77905273 250.43017578 C-75.78476067 248.06543659 -75.79172656 245.70070015 -75.79985046 243.33596802 C-75.81775039 236.93508429 -75.81661935 230.53433789 -75.81090808 224.13343668 C-75.80783833 220.12962161 -75.8108131 216.12581835 -75.81538582 212.12200546 C-75.81613424 211.45561183 -75.81688266 210.7892182 -75.81765376 210.10263082 C-75.81918537 208.74848819 -75.82072372 207.39434557 -75.82226873 206.04020296 C-75.83597055 193.36487709 -75.83057251 180.68961308 -75.81908352 168.01428865 C-75.80915429 156.44215989 -75.82209051 144.8701911 -75.84601771 133.29808702 C-75.87045546 121.38845871 -75.88000508 109.47890475 -75.87336498 97.56925189 C-75.86988303 90.89385808 -75.87237564 84.21856905 -75.88961601 77.54318619 C-75.90512634 71.26395934 -75.90108392 64.98503699 -75.88231087 58.70582199 C-75.8786363 56.40854194 -75.88170018 54.11123912 -75.89219666 51.8139801 C-75.96182967 35.30695545 -75.39592787 21.93133265 -64.375 8.6875 C-63.84003906 8.04039063 -63.30507812 7.39328125 -62.75390625 6.7265625 C-47.23959686 -10.31313462 -18.80269918 -12.53513279 0 0 Z " fill="#5B5369" transform="translate(283.375,47.3125)"/>
</svg>
